#!OML:ASF F:\twosubjects\two\Thursday\Session 1\Rory.ASF
:FULLY-SPECIFIED
:DEGREES
448
root 11.2405 17.6175 8.51674 -167.068 -75.6059 169.273
lowerback 2.73786 -1.7385 -2.45853
upperback 0.795354 -2.39622 -0.205528
thorax -0.626291 -1.20163 1.24138
lowerneck 6.68848 -16.8552 -14.9128
upperneck 0.772766 -24.7314 21.3303
head 3.73081 -12.6943 7.58911
rclavicle -4.30617e-014 9.0447e-015
rhumerus -39.4392 -37.5633 -59.5149
rradius 35.5373
rwrist 1.21739
rhand -29.864 26.2197
rfingers 7.12502
rthumb -3.18609 -3.73628
lclavicle -4.30617e-014 9.0447e-015
lhumerus -49.3977 29.6175 52.2199
lradius 31.5067
lwrist -3.0227
lhand -11.7365 36.4995
lfingers 7.12502
lthumb 14.3109 65.9863
rfemur -18.914 12.5684 18.3244
rtibia 47.5191
rfoot -25.95 -6.69238
rtoes -5.99872
lfemur -17.5622 4.27196 -24.938
ltibia 46.4987
lfoot -27.0257 1.64291
ltoes 11.4784
449
root 11.2244 17.6312 8.5178 -169.124 -75.5764 171.214
lowerback 2.72488 -1.67889 -2.00584
upperback 0.803546 -2.30164 -0.0583821
thorax -0.626226 -1.15412 1.13583
lowerneck 6.95356 -16.9536 -14.7159
upperneck 1.251 -24.9052 20.7345
head 3.75219 -12.7741 7.38268
rclavicle 1.0138e-014 1.98785e-016
rhumerus -40.3191 -37.72 -60.5222
rradius 33.9711
rwrist 3.70763
rhand -28.0184 26.5122
rfingers 7.12502
rthumb -1.40373 -3.46294
lclavicle 1.0138e-014 1.98785e-016
lhumerus -49.4537 29.0939 55.2233
lradius 31.6757
lwrist -2.18772
lhand -11.8864 36.431
lfingers 7.12502
lthumb 14.1665 65.9279
rfemur -18.8695 11.9392 18.7411
rtibia 47.6378
rfoot -26.192 -4.39859
rtoes 1.25465
lfemur -17.564 4.4431 -24.4174
ltibia 46.9037
lfoot -26.5191 1.17844
ltoes 13.4258
450
root 11.2073 17.6575 8.5132 -170.636 -75.5473 172.569
lowerback 2.73058 -1.53653 -1.74999
upperback 0.850894 -2.1041 0.0175238
thorax -0.594062 -1.05614 1.06404
lowerneck 6.78151 -17.0601 -14.3164
upperneck 2.02276 -25.0645 19.9966
head 3.88359 -12.8146 7.06007
rclavicle 1.26104e-014 -2.88238e-015
rhumerus -41.2334 -38.2868 -61.3243
rradius 32.2845
rwrist 6.32846
rhand -27.111 26.4336
rfingers 7.12502
rthumb -0.527316 -3.54547
lclavicle 1.26104e-014 -2.88238e-015
lhumerus -49.191 28.3564 58.3217
lradius 31.6451
lwrist -1.44108
lhand -11.4838 36.0748
lfingers 7.12502
lthumb 14.5544 65.5442
rfemur -18.4751 11.6195 19.1073
rtibia 47.3309
rfoot -26.4126 -3.16709
rtoes 6.84991
lfemur -17.3162 4.76559 -23.9943
ltibia 46.9352
lfoot -26.2679 0.717261
ltoes 14.2072
451
root 11.1853 17.6872 8.50901 -170.988 -75.6905 172.758
lowerback 2.66615 -1.54917 -1.72124
upperback 0.886324 -2.11873 0.0255035
thorax -0.522021 -1.06444 1.05386
lowerneck 6.51033 -17.0263 -13.9783
upperneck 2.88127 -25.0431 19.294
head 4.03954 -12.7632 6.76863
rclavicle 9.16894e-015 1.2921e-015
rhumerus -42.0123 -38.8698 -62.0938
rradius 30.5163
rwrist 9.02726
rhand -26.0936 26.2419
rfingers 7.12502
rthumb 0.455367 -3.73737
lclavicle 9.16894e-015 1.2921e-015
lhumerus -48.8927 27.499 61.2644
lradius 31.4264
lwrist -0.562677
lhand -10.8735 35.804
lfingers 7.12502
lthumb 15.1423 65.23
rfemur -17.7968 11.6341 19.2854
rtibia 46.6592
rfoot -26.2403 -3.69646
rtoes 5.74973
lfemur -16.8579 4.9734 -23.8516
ltibia 46.5695
lfoot -26.1659 0.486951
ltoes 13.8734
452
root 11.1537 17.7285 8.50954 -171.149 -75.9236 172.8
lowerback 2.45815 -1.65041 -1.63958
upperback 0.941133 -2.24702 0.0594499
thorax -0.347379 -1.13044 1.03853
lowerneck 6.28406 -16.9338 -13.8704
upperneck 3.63325 -24.9763 18.8719
head 4.21808 -12.6998 6.59758
rclavicle 5.96602e-014 -1.98785e-015
rhumerus -42.7497 -39.7108 -62.4455
rradius 28.772
rwrist 11.9286
rhand -24.5798 26.483
rfingers 7.12502
rthumb 1.91737 -3.48812
lclavicle 5.96602e-014 -1.98785e-015
lhumerus -48.7434 28.6326 62.7322
lradius 30.2254
lwrist -1.82145
lhand -10.5339 35.1167
lfingers 7.12502
lthumb 15.4694 64.5177
rfemur -16.9132 12.0244 19.4479
rtibia 45.7102
rfoot -25.7538 -4.93805
rtoes 2.15884
lfemur -16.2443 4.874 -23.7783
ltibia 45.872
lfoot -26.0288 0.490077
ltoes 12.6291
453
root 11.1214 17.7721 8.50722 -170.743 -76.0078 172.332
lowerback 2.09701 -1.59465 -1.8067
upperback 1.00967 -2.16848 0.0801056
thorax -0.0704076 -1.09461 1.13817
lowerneck 6.21798 -17.0721 -13.8045
upperneck 4.17204 -25.2397 18.6546
head 4.39584 -12.8127 6.46635
rclavicle 2.36057e-014 7.95139e-015
rhumerus -43.8459 -41.1386 -62.0915
rradius 27.0978
rwrist 14.8757
rhand -24.0325 27.7366
rfingers 7.12502
rthumb 2.44601 -2.22909
lclavicle 2.36057e-014 7.95139e-015
lhumerus -48.7762 31.7215 62.5407
lradius 28.1625
lwrist -5.63999
lhand -9.73397 33.8682
lfingers 7.12502
lthumb 16.2398 63.2081
rfemur -15.9615 12.8989 19.516
rtibia 44.5904
rfoot -25.2675 -6.48902
rtoes -1.04413
lfemur -15.6104 4.58086 -23.885
ltibia 44.9651
lfoot -25.8489 0.63845
ltoes 11.0753
454
root 11.0926 17.805 8.49485 -169.702 -75.9708 171.364
lowerback 1.66666 -1.54571 -2.21636
upperback 0.882961 -2.09955 0.0500055
thorax 0.052216 -1.06086 1.32408
lowerneck 6.7109 -17.14 -13.7268
upperneck 4.38726 -25.415 18.474
head 4.37531 -12.9238 6.42755
rclavicle -5.00316e-014 -4.37326e-015
rhumerus -45.4711 -42.6811 -61.267
rradius 25.5281
rwrist 17.6068
rhand -23.9946 29.3188
rfingers 7.12502
rthumb 2.48261 -0.646494
lclavicle -5.00316e-014 -4.37326e-015
lhumerus -49.2587 33.9596 62.2816
lradius 26.6944
lwrist -8.69863
lhand -8.42906 33.287
lfingers 7.12502
lthumb 17.496 62.5197
rfemur -15.1734 13.6121 19.4705
rtibia 43.4126
rfoot -24.5992 -8.3524
rtoes -5.96653
lfemur -15.058 4.24339 -24.1224
ltibia 43.9462
lfoot -25.6541 0.758875
ltoes 10.7451
455
root 11.0607 17.8505 8.48421 -170.277 -76.0798 172.226
lowerback 1.16688 -1.61163 -1.97479
upperback 0.664107 -2.17194 0.0772372
thorax 0.102729 -1.09373 1.20614
lowerneck 6.94101 -17.0193 -13.6582
upperneck 4.86436 -25.3369 18.1928
head 4.42183 -12.8926 6.36069
rclavicle -9.0621e-014 9.74045e-015
rhumerus -47.0734 -44.297 -60.2567
rradius 23.9531
rwrist 19.5015
rhand -23.3088 29.5367
rfingers 7.12502
rthumb 3.14487 -0.419859
lclavicle -9.0621e-014 9.74045e-015
lhumerus -49.8938 35.441 62.3225
lradius 25.7896
lwrist -10.6384
lhand -7.57473 33.2384
lfingers 7.12502
lthumb 18.318 62.3959
rfemur -14.6213 14.1478 19.7983
rtibia 42.2735
rfoot -24.3618 -8.98145
rtoes -5.35873
lfemur -14.6392 4.16024 -23.8263
ltibia 42.8806
lfoot -25.4111 0.757601
ltoes 10.7281
456
root 11.0238 17.9208 8.48352 -170.769 -76.3167 173.009
lowerback 0.673394 -1.66481 -1.63806
upperback 0.522776 -2.22983 0.123694
thorax 0.225343 -1.12106 1.05263
lowerneck 6.75688 -16.994 -13.5174
upperneck 5.39393 -25.3265 17.8042
head 4.53878 -12.8671 6.1998
rclavicle 1.63128e-014 -6.75868e-015
rhumerus -48.7257 -45.9748 -58.9849
rradius 22.7297
rwrist 20.516
rhand -22.7486 28.592
rfingers 7.12502
rthumb 3.68588 -1.35586
lclavicle 1.63128e-014 -6.75868e-015
lhumerus -50.3806 36.9974 62.4049
lradius 24.9229
lwrist -12.0127
lhand -7.81835 32.8722
lfingers 7.12502
lthumb 18.0836 62.0516
rfemur -14.2162 14.6 19.9444
rtibia 41.2625
rfoot -24.5854 -8.11183
rtoes 1.21457
lfemur -14.2094 3.86354 -23.5883
ltibia 41.7452
lfoot -25.0196 0.983044
ltoes 9.38822
457
root 10.986 17.9927 8.48612 -170.543 -76.5537 172.969
lowerback 0.255896 -1.68235 -1.59198
upperback 0.368015 -2.24573 0.149207
thorax 0.300492 -1.12803 1.04235
lowerneck 6.85082 -17.0343 -13.3128
upperneck 5.65786 -25.3963 17.4931
head 4.54672 -12.9014 6.08158
rclavicle 4.52235e-015 3.18055e-015
rhumerus -50.6796 -47.2694 -57.6225
rradius 22.1274
rwrist 20.8876
rhand -22.9659 27.8215
rfingers 7.12502
rthumb 3.47608 -2.1299
lclavicle 4.52235e-015 3.18055e-015
lhumerus -50.921 38.3741 62.3218
lradius 24.032
lwrist -12.96
lhand -8.47865 32.3095
lfingers 7.12502
lthumb 17.4482 61.5465
rfemur -13.8506 14.8919 19.8924
rtibia 40.3912
rfoot -24.1143 -8.21275
rtoes 1.46362
lfemur -13.6945 3.38281 -23.5961
ltibia 40.5951
lfoot -24.5036 1.20382
ltoes 7.94861
458
root 10.9472 18.0551 8.48732 -169.786 -76.6842 172.285
lowerback -0.155798 -1.73555 -1.74758
upperback 0.276661 -2.30922 0.1728
thorax 0.446648 -1.16068 1.14113
lowerneck 6.73001 -17.0934 -13.2329
upperneck 6.17431 -25.4993 17.0353
head 4.66659 -12.9367 5.89962
rclavicle 7.19352e-015 -3.18055e-015
rhumerus -52.3468 -48.1762 -56.4921
rradius 21.7862
rwrist 20.3867
rhand -22.874 27.8408
rfingers 7.12502
rthumb 3.56475 -2.1091
lclavicle 7.19352e-015 -3.18055e-015
lhumerus -51.6208 39.7701 62.0852
lradius 23.3108
lwrist -13.9804
lhand -8.63441 32.3561
lfingers 7.12502
lthumb 17.2983 61.6063
rfemur -13.4374 14.8362 19.6854
rtibia 39.6737
rfoot -23.5051 -8.42844
rtoes -0.319638
lfemur -13.0589 3.13418 -23.7622
ltibia 39.4769
lfoot -24.0418 1.11764
ltoes 8.14252
459
root 10.9169 18.102 8.49 -168.219 -76.7002 170.918
lowerback -0.60779 -1.86344 -2.02906
upperback 0.185644 -2.4695 0.20986
thorax 0.625519 -1.24275 1.32046
lowerneck 6.11345 -17.1362 -13.3223
upperneck 6.91448 -25.5398 16.4262
head 4.9256 -12.9127 5.64151
rclavicle 2.18912e-014 3.57812e-015
rhumerus -53.5314 -48.7574 -55.6657
rradius 21.5584
rwrist 19.2297
rhand -21.7498 27.7205
rfingers 7.12502
rthumb 4.65035 -2.20843
lclavicle 2.18912e-014 3.57812e-015
lhumerus -52.2392 41.0083 62.1352
lradius 22.9037
lwrist -14.5619
lhand -8.66052 32.8002
lfingers 7.12502
lthumb 17.2732 62.0526
rfemur -13.2743 14.4902 19.2137
rtibia 39.1146
rfoot -23.2156 -8.21784
rtoes -0.902526
lfemur -12.647 2.86177 -24.1317
ltibia 38.4447
lfoot -23.6167 0.981773
ltoes 9.61061
460
root 10.8941 18.1382 8.4929 -167.234 -76.8974 170.352
lowerback -1.07322 -2.03777 -2.12635
upperback -0.0289074 -2.69306 0.299054
thorax 0.683771 -1.35388 1.44938
lowerneck 5.70539 -17.1542 -13.2523
upperneck 7.33817 -25.5182 15.9325
head 5.04151 -12.8755 5.44092
rclavicle 8.7341e-015 2.18663e-015
rhumerus -54.6038 -49.0359 -54.9821
rradius 21.4456
rwrist 18.0479
rhand -20.928 27.0081
rfingers 7.12502
rthumb 5.44385 -2.90197
lclavicle 8.7341e-015 2.18663e-015
lhumerus -52.8816 41.985 62.0758
lradius 22.5527
lwrist -14.9204
lhand -9.12757 32.9068
lfingers 7.12502
lthumb 16.8236 62.198
rfemur -13.423 13.9554 18.9574
rtibia 38.6473
rfoot -22.964 -8.17293
rtoes -2.25715
lfemur -12.6001 2.46613 -24.2759
ltibia 37.5561
lfoot -23.1158 1.01243
ltoes 9.50286
